<?xml version="1.0" encoding="utf-8"?>
<!-- Generator: Adobe Illustrator 19.0.0, SVG Export Plug-In . SVG Version: 6.00 Build 0)  -->
<svg version="1.1"
	 id="Warstwa_1" xmlns:cc="http://creativecommons.org/ns#" xmlns:rdf="http://www.w3.org/1999/02/22-rdf-syntax-ns#" xmlns:dc="http://purl.org/dc/elements/1.1/"
	 xmlns="http://www.w3.org/2000/svg" xmlns:xlink="http://www.w3.org/1999/xlink" x="0px" y="0px" viewBox="-58 -54.5 24.6 249.4"
	 style="enable-background:new -58 -54.5 24.6 249.4;" xml:space="preserve">
<style type="text/css">
	.st0{fill:#5FC9C9;stroke:#5FC9C9;stroke-width:0.8734;stroke-miterlimit:10;}
	.st1{fill:none;stroke:#FC7B19;stroke-width:0.7773;stroke-miterlimit:10;}
	.st2{fill:#FC7B19;}
</style>
<path class="st0" d="M590-25.2"/>
<g>
	<path class="st1" d="M-35.7,178.8c-10-22.7-20-20.5-20-45.3c0-24.8,20-20.5,20-45.3c0-24.8-20-20.5-20-45.3c0-24.8,20-20.5,20-45.3
		c0-24.8-10-22.7-20-45.3"/>
</g>
<g>
	<circle class="st2" cx="-35.4" cy="178.8" r="1.1"/>
	<circle class="st1" cx="-35.4" cy="178.8" r="1.1"/>
</g>
<g>
	<circle class="st2" cx="-56" cy="133.6" r="1.1"/>
	<circle class="st1" cx="-56" cy="133.6" r="1.1"/>
</g>
<g>
	<circle class="st2" cx="-35.4" cy="88.3" r="1.1"/>
	<circle class="st1" cx="-35.4" cy="88.3" r="1.1"/>
</g>
<g>
	<circle class="st2" cx="-55.6" cy="42.8" r="1.1"/>
	<circle class="st1" cx="-55.6" cy="42.8" r="1.1"/>
</g>
<g>
	<circle class="st2" cx="-35.5" cy="-2.2" r="1.1"/>
	<circle class="st1" cx="-35.5" cy="-2.2" r="1.1"/>
</g>
<g>
	<circle class="st2" cx="-55.8" cy="-47.7" r="1.1"/>
	<circle class="st1" cx="-55.8" cy="-47.7" r="1.1"/>
</g>
</svg>
